<svg width="399" height="318" viewBox="0 0 399 318" fill="none" xmlns="http://www.w3.org/2000/svg">
<path d="M120.153 0.376839L0.557434 119.344L199.779 317.623L399 119.423L279.404 0.376839H120.153Z" fill="#57637A"/>
<path d="M114.578 77.6467C161.615 30.5309 237.943 30.5309 284.98 77.6467L325.656 118.323L284.98 159C237.943 206.116 161.615 206.116 114.578 159L73.901 118.323L114.578 77.6467Z" fill="#394150"/>
<path fill-rule="evenodd" clip-rule="evenodd" d="M199.779 168.188C172.295 168.188 149.993 146.436 149.993 119.658C149.993 92.8808 172.295 71.1291 199.779 71.1291C227.263 71.1291 249.564 92.8808 249.564 119.658C249.564 146.436 227.341 168.188 199.779 168.188Z" fill="white"/>
<path d="M199.779 139.29C188.235 139.29 178.812 129.867 178.812 118.323C178.812 106.701 188.235 97.3568 199.779 97.3568C211.322 97.3568 220.745 106.78 220.745 118.323C220.745 129.945 211.401 139.29 199.779 139.29Z" fill="#394150"/>
</svg>
