<svg width="339" height="204" viewBox="0 0 339 204" fill="none" xmlns="http://www.w3.org/2000/svg">
<path d="M239.947 51.9701L259.77 75.3862C262.038 78.0539 264.01 80.1287 264.898 81.4132C270.815 87.3413 274.168 95.3443 274.168 103.644C273.577 113.425 267.265 120.144 261.348 127.356L247.442 143.659L240.243 152.156C239.947 152.452 239.848 152.847 239.749 153.242C239.651 153.638 239.75 154.033 239.947 154.329C240.144 154.725 240.341 155.021 240.736 155.219C241.032 155.416 241.426 155.515 241.821 155.515H314.209C325.255 155.515 339.16 164.802 338.371 178.931C338.371 185.353 335.708 191.479 331.172 196.024C326.537 200.569 320.323 203.138 313.814 203.138H200.399C192.904 203.138 172.884 203.928 167.263 186.835C166.079 183.278 165.882 179.425 166.769 175.769C168.446 170.335 171.01 165.198 174.363 160.653C180.083 152.156 186.198 143.757 192.312 135.557C200.202 124.787 208.191 114.413 216.179 103.446C216.475 103.051 216.573 102.656 216.573 102.162C216.573 101.668 216.376 101.272 216.179 100.877L187.381 66.988C187.184 66.7904 186.987 66.5928 186.691 66.3952C186.395 66.2964 186.099 66.1976 185.803 66.1976C185.508 66.1976 185.212 66.2964 184.916 66.3952C184.62 66.494 184.423 66.6916 184.225 66.988C176.533 77.2635 142.706 122.811 135.506 132.099C128.307 141.287 110.555 141.88 100.693 132.099L55.6227 87.4401C55.3268 87.1437 54.9323 86.9461 54.5378 86.8473C54.1434 86.7485 53.7489 86.8473 53.3544 86.9461C52.9599 87.1437 52.664 87.3413 52.4668 87.7365C52.2695 88.0329 52.0723 88.4281 52.1709 88.8233V174.683C52.2695 180.808 50.4943 186.736 46.944 191.775C43.3936 196.814 38.4625 200.569 32.6438 202.644C28.8962 203.928 24.9513 204.323 21.1051 203.73C17.2588 203.138 13.5112 201.754 10.3553 199.482C7.10077 197.21 4.5366 194.245 2.76141 190.787C0.986221 187.329 0 183.476 0 179.623V25.1946C0.295865 19.6617 2.26831 14.3264 5.81869 9.88024C9.36908 5.53294 14.1029 2.37126 19.5271 0.889221C24.1623 -0.296407 29.0934 -0.296407 33.7287 0.889221C38.3639 2.17365 42.6046 4.54492 46.0564 8.003L115.387 76.473C115.585 76.6706 115.881 76.8682 116.078 76.9671C116.374 77.0659 116.67 77.0659 116.965 77.0659C117.261 77.0659 117.557 76.967 117.754 76.7694C118.05 76.6706 118.247 76.4731 118.445 76.1766L167.657 8.89222C169.925 6.12575 172.785 3.9521 176.04 2.47007C179.294 0.98803 182.845 0.0988145 186.395 0.0988145H314.406C317.957 0.0988145 321.408 0.889246 324.564 2.27248C327.72 3.75451 330.58 5.82935 332.947 8.39821C335.215 10.9671 336.991 14.0299 337.977 17.3892C338.963 20.7485 339.259 24.2066 338.766 27.6647C337.878 33.5928 334.821 39.0269 330.186 42.8802C325.55 46.7335 319.633 48.9072 313.519 48.8084H241.821C241.426 48.8084 241.13 48.9072 240.834 49.1048C240.538 49.3024 240.243 49.5988 240.144 49.8952C239.947 50.1916 239.947 50.5869 239.947 50.8833C239.651 51.2785 239.75 51.6737 239.947 51.9701Z" fill="#394150"/>
</svg>
