<svg width="204" height="204" viewBox="0 0 204 204" fill="none" xmlns="http://www.w3.org/2000/svg">
<path d="M204 102C204 158.33 158.33 204 102 204C45.6702 204 0 158.33 0 102C0 45.6702 45.6702 0 102 0C158.342 0 204 45.6702 204 102Z" fill="#394150"/>
<path d="M50.3225 105.427L50.7627 104.736L77.2969 63.2262C77.6845 62.6183 78.5964 62.6813 78.8897 63.3413C83.3226 73.2761 87.1476 85.6315 85.3556 93.3234C84.5906 96.4882 82.4949 100.774 80.1368 104.736C79.8329 105.312 79.4976 105.878 79.1413 106.423C78.9736 106.674 78.6907 106.821 78.3868 106.821H51.0979C50.3644 106.821 49.9349 106.025 50.3225 105.427Z" fill="white"/>
<path d="M168.595 113.14V119.711C168.595 120.088 168.364 120.424 168.029 120.57C165.975 121.451 158.943 124.678 156.019 128.744C148.558 139.13 142.857 153.979 130.114 153.979H76.9511C58.1088 153.979 42.8401 138.658 42.8401 119.753V119.145C42.8401 118.642 43.2487 118.233 43.7519 118.233H73.3879C73.9748 118.233 74.4045 118.778 74.3522 119.355C74.1425 121.283 74.4988 123.253 75.4105 125.045C77.1712 128.619 80.8181 130.851 84.7584 130.851H99.4297V119.397H84.9259C84.182 119.397 83.7418 118.537 84.1716 117.929C84.3287 117.689 84.5068 117.437 84.6954 117.154C86.0683 115.205 88.0279 112.176 89.9772 108.728C91.308 106.402 92.597 103.918 93.6345 101.424C93.8441 100.974 94.0119 100.513 94.1794 100.062C94.4625 99.2655 94.7558 98.5213 94.9655 97.7774C95.1749 97.1487 95.3426 96.4884 95.5104 95.87C96.0029 93.7532 96.2126 91.5105 96.2126 89.184C96.2126 88.2724 96.1706 87.3188 96.0868 86.4069C96.0448 85.4114 95.919 84.4159 95.7932 83.4204C95.7094 82.54 95.5523 81.6703 95.3846 80.7586C95.1749 79.4276 94.8816 78.1073 94.5461 76.7763L94.431 76.2733C94.1794 75.3617 93.9699 74.4917 93.6764 73.5801C92.8486 70.7191 91.8948 67.9315 90.8889 65.3222C90.5221 64.2847 90.1028 63.2892 89.6837 62.2937C89.0653 60.7949 88.4366 59.4327 87.8604 58.1436C87.5668 57.5568 87.3152 57.0223 87.0639 56.4774C86.781 55.8591 86.4874 55.2409 86.1941 54.6539C85.9845 54.2033 85.7433 53.7841 85.5758 53.365L83.7838 50.0534C83.5322 49.6028 83.9515 49.0683 84.4438 49.2046L95.657 52.2437H95.6885C95.7094 52.2437 95.72 52.2541 95.7305 52.2541L97.2081 52.6628L98.8324 53.1239L99.4297 53.2916V46.6267C99.4297 43.4094 102.008 40.8 105.194 40.8C106.786 40.8 108.232 41.4496 109.27 42.5082C110.307 43.5667 110.957 45.0128 110.957 46.6267V56.5193L112.152 56.8546C112.246 56.8861 112.341 56.928 112.424 56.9908C112.718 57.2109 113.137 57.5359 113.671 57.934C114.091 58.2694 114.541 58.6781 115.086 59.0972C116.166 59.9672 117.454 61.0885 118.869 62.3773C119.246 62.7023 119.613 63.0376 119.949 63.3731C121.772 65.0706 123.816 67.0618 125.765 69.2625C126.31 69.8807 126.844 70.5094 127.389 71.1697C127.934 71.8404 128.511 72.5007 129.014 73.161C129.674 74.0411 130.386 74.9528 131.005 75.9066C131.298 76.3572 131.633 76.8182 131.916 77.2689C132.713 78.474 133.415 79.7212 134.086 80.9681C134.369 81.5445 134.662 82.1732 134.913 82.7916C135.658 84.4578 136.244 86.1555 136.622 87.8533C136.737 88.22 136.821 88.6183 136.863 88.9746V89.0582C136.988 89.5614 137.03 90.0959 137.072 90.6408C137.24 92.3803 137.156 94.1199 136.779 95.87C136.622 96.6142 136.412 97.3162 136.161 98.0603C135.909 98.7729 135.658 99.5169 135.333 100.219C134.704 101.676 133.96 103.132 133.079 104.495C132.797 104.998 132.461 105.532 132.126 106.035C131.759 106.57 131.382 107.073 131.046 107.565C130.585 108.194 130.093 108.854 129.59 109.441C129.139 110.059 128.678 110.678 128.175 111.223C127.473 112.05 126.802 112.836 126.1 113.591C125.681 114.084 125.23 114.587 124.769 115.037C124.319 115.54 123.858 115.991 123.438 116.41C122.736 117.112 122.149 117.657 121.657 118.108L120.504 119.166C120.336 119.313 120.116 119.397 119.886 119.397H110.957V130.851H122.191C124.706 130.851 127.096 129.96 129.024 128.325C129.684 127.749 132.566 125.255 135.972 121.493C136.087 121.367 136.234 121.273 136.401 121.231L167.431 112.26C168.008 112.092 168.595 112.533 168.595 113.14Z" fill="white"/>
</svg>
