<svg width="204" height="204" viewBox="0 0 204 204" fill="none" xmlns="http://www.w3.org/2000/svg">
<path d="M163.2 0H40.8C18.2668 0 0 18.2668 0 40.8V163.2C0 185.733 18.2668 204 40.8 204H163.2C185.733 204 204 185.733 204 163.2V40.8C204 18.2668 185.733 0 163.2 0Z" fill="#394150"/>
<path d="M140.764 101.253C147.19 99.5836 152.907 94.7773 152.907 85.1133C152.907 69.0244 139.246 65.2799 121.74 65.2799H52.0201V137.733H81.365V113.143H116.174C121.538 113.143 124.675 115.268 124.675 120.53V137.733H154.02V119.619C154.02 109.753 148.454 103.53 140.764 101.253ZM116.68 93.6135H81.365V86.5301H116.68C120.526 86.5301 122.853 87.036 122.853 90.0721C122.853 93.1076 120.526 93.6135 116.68 93.6135Z" fill="white"/>
</svg>
