<svg width="25" height="24" viewBox="0 0 25 24" fill="none" xmlns="http://www.w3.org/2000/svg">
<g clip-path="url(#clip0_1477_11973)">
<path d="M7.11228 15.5399C7.20704 15.4213 7.33567 15.3545 7.46989 15.3542H19.8097C19.8598 15.3542 19.9087 15.3726 19.9503 15.4073C19.9919 15.4419 20.0244 15.4912 20.0435 15.5489C20.0627 15.6066 20.0676 15.67 20.0578 15.7312C20.048 15.7925 20.0238 15.8487 19.9884 15.8927L17.5509 18.934C17.5039 18.9926 17.4481 19.039 17.3868 19.0707C17.3254 19.1024 17.2597 19.1186 17.1933 19.1186H4.8534C4.80372 19.1182 4.75522 19.0996 4.71398 19.065C4.67273 19.0305 4.64055 18.9815 4.62146 18.9243C4.60237 18.867 4.59722 18.8041 4.60664 18.7432C4.61606 18.6823 4.63964 18.6263 4.67444 18.582L7.11228 15.5399Z" fill="#1A202C"/>
<path d="M7.11228 4.18417C7.20805 4.06766 7.33614 4.0017 7.46989 4H19.8097C19.8598 3.99991 19.9087 4.01836 19.9503 4.05301C19.9919 4.08766 20.0244 4.13695 20.0435 4.19463C20.0627 4.25231 20.0676 4.31578 20.0578 4.37699C20.048 4.43821 20.0238 4.49441 19.9884 4.53847L17.5509 7.57978C17.5039 7.63834 17.4481 7.68478 17.3868 7.71645C17.3254 7.74811 17.2597 7.76439 17.1933 7.76434H4.8534C4.80372 7.76395 4.75522 7.74532 4.71398 7.71076C4.67273 7.6762 4.64055 7.62725 4.62146 7.57002C4.60237 7.51279 4.59722 7.4498 4.60664 7.38894C4.61606 7.32807 4.63964 7.27202 4.67444 7.22777L7.11228 4.18417Z" fill="#1A202C"/>
<path d="M17.5509 9.82591C17.5039 9.76735 17.4482 9.72091 17.3868 9.68925C17.3254 9.65758 17.2597 9.64131 17.1933 9.64136H4.85344C4.80344 9.64137 4.75457 9.65988 4.713 9.69453C4.67143 9.72918 4.63903 9.77843 4.61988 9.83605C4.60073 9.89367 4.59569 9.95707 4.60541 10.0183C4.61513 10.0795 4.63916 10.1357 4.67448 10.1798L7.11232 13.2211C7.15928 13.2797 7.21504 13.3262 7.2764 13.3578C7.33776 13.3895 7.40353 13.4058 7.46993 13.4057H19.8098C19.8598 13.4058 19.9087 13.3873 19.9504 13.3527C19.992 13.318 20.0244 13.2687 20.0436 13.2111C20.0627 13.1534 20.0677 13.0899 20.0579 13.0287C20.048 12.9675 20.0239 12.9113 19.9884 12.8672L17.5509 9.82591Z" fill="#1A202C"/>
</g>
<defs>
<clipPath id="clip0_1477_11973">
<rect width="15.4631" height="15.12" fill="white" transform="translate(4.6001 4)"/>
</clipPath>
</defs>
</svg>
