<svg width="323" height="204" viewBox="0 0 323 204" fill="none" xmlns="http://www.w3.org/2000/svg">
<path d="M49.4109 2.23756C37.6515 4.78779 27.1672 10.3133 18.0998 18.8141C-4.71064 40.491 -4.99399 80.8697 17.533 100.988C26.4588 109.064 36.9431 114.589 59.7535 123.09C69.8128 126.915 82.2806 132.016 87.381 134.425C98.2903 139.808 109.483 149.159 112.033 155.535C116.142 165.311 113.308 181.179 105.799 188.971C98.7154 196.622 91.9148 199.03 78.5969 199.172C67.8293 199.172 65.4207 198.605 56.7783 194.497C39.3517 186.279 22.4918 165.452 9.74067 136.408L5.06525 125.499L4.92357 164.036C4.92357 185.287 5.20693 202.714 5.49029 202.714C5.77365 202.714 8.32388 201.722 11.0158 200.589C18.0998 197.614 33.2595 197.897 53.803 201.297C74.0631 204.698 80.5804 204.839 92.4815 202.006C124.076 194.497 140.936 172.111 139.236 139.525C137.819 112.606 122.943 98.0129 80.1554 81.4364C55.7865 71.9439 42.4686 65.5683 36.0931 60.1845C27.0256 52.5338 23.9086 39.3576 28.159 27.3148C31.2759 18.6724 35.5263 13.5719 43.7437 9.17986C49.9776 5.63787 52.5279 5.07115 62.3038 5.21283C71.938 5.21283 74.9132 5.77955 81.4305 9.03818C95.4567 16.2638 109.766 32.557 124.076 57.9176L131.16 70.2437L130.168 54.659C129.743 46.0165 128.893 31.1402 128.468 21.506L127.476 3.79604L118.267 4.22107C113.167 4.36275 101.124 3.51268 91.348 2.37924C70.3795 -0.312668 61.0286 -0.312668 49.4109 2.23756Z" fill="black"/>
<path d="M144.478 5.07117C151.42 10.1716 156.804 16.8306 159.354 23.7729C162.046 30.9985 162.188 34.9655 162.188 102.122C162.188 169.986 162.046 173.103 159.212 180.612C157.229 186.138 154.254 190.246 149.153 194.922L142.069 201.297H183.298H224.527L216.876 193.788C205.542 182.879 204.692 178.912 204.692 136.55C204.692 116.431 205.258 102.122 205.967 102.122C209.792 102.122 216.734 111.189 224.952 126.632C230.052 136.125 241.387 156.668 250.312 172.253L266.464 200.589L294.375 201.014C309.676 201.156 322.286 201.014 322.286 200.589C322.286 200.022 320.444 198.18 318.177 196.197C311.235 190.388 300.892 175.37 277.94 137.4L255.98 101.272L263.347 98.7213C279.64 93.0541 291.683 81.8614 295.366 68.9686C298.2 58.7677 296.642 42.0495 292.108 33.1237C284.882 19.0974 268.731 7.6214 251.588 4.36277C247.337 3.51269 221.268 2.94597 192.791 2.94597C147.736 3.08765 141.928 3.22933 144.478 5.07117ZM226.794 11.1634C237.561 16.6889 246.204 27.4565 250.737 40.9161C254.563 52.5338 253.288 73.3607 248.187 83.2782C241.812 95.746 230.902 100.705 212.909 99.5714L204.692 99.0047V52.9588V6.77132L212.909 7.6214C217.443 7.90476 223.677 9.60491 226.794 11.1634Z" fill="black"/>
</svg>
